<svg width="41" height="24" viewBox="0 0 41 24" fill="none" xmlns="http://www.w3.org/2000/svg">
<g id="quality">
<g id="Group 15">
<g id="Group 8">
<path id="Ellipse 6" d="M40.5 20C40.5 17.3736 39.9827 14.7728 38.9776 12.3463C37.9725 9.91982 36.4993 7.71504 34.6421 5.85786C32.785 4.00069 30.5802 2.5275 28.1537 1.52241C25.7272 0.517315 23.1264 -1.14805e-07 20.5 0C17.8736 1.14805e-07 15.2728 0.517316 12.8463 1.52241C10.4198 2.5275 8.21503 4.00069 6.35786 5.85787C4.50069 7.71504 3.0275 9.91982 2.02241 12.3463C1.01731 14.7728 0.5 17.3736 0.5 20L9.94529 20C9.94529 18.6139 10.2183 17.2414 10.7487 15.9609C11.2791 14.6803 12.0566 13.5168 13.0367 12.5367C14.0168 11.5566 15.1803 10.7791 16.4609 10.2487C17.7414 9.71829 19.1139 9.44529 20.5 9.44529C21.8861 9.44529 23.2586 9.71829 24.5391 10.2487C25.8197 10.7791 26.9832 11.5566 27.9633 12.5367C28.9434 13.5168 29.7209 14.6803 30.2513 15.9609C30.7817 17.2414 31.0547 18.6139 31.0547 20H40.5Z" fill="#DDDEE6"/>
<path id="Ellipse 9" d="M40.5 20C40.5 16.5756 39.6207 13.2086 37.9464 10.2214C36.2721 7.23419 33.8589 4.72694 30.9378 2.93977L26.0084 10.9967C27.55 11.9399 28.8235 13.263 29.7071 14.8395C30.5907 16.4159 31.0547 18.1928 31.0547 20H40.5Z" fill="#92C74B"/>
</g>
<g id="Group 13">
<g id="Vector 1" filter="url(#filter0_d_197_2327)">
<path d="M18.591 18.7345C20.2433 21.3015 22.1679 18.7124 30.2106 12.954L18.591 18.7345Z" fill="#07020E"/>
</g>
<path id="Vector 2" d="M18.6395 18.8309C17.5616 15.9747 20.7877 15.9708 30.2035 12.94L18.6395 18.8309Z" fill="#535353"/>
<g id="Ellipse 5" filter="url(#filter1_i_197_2327)">
<ellipse cx="19.8805" cy="18.0364" rx="0.918371" ry="0.918371" transform="rotate(41.523 19.8805 18.0364)" fill="#5C5C5C"/>
</g>
</g>
</g>
</g>
<defs>
<filter id="filter0_d_197_2327" x="18.5908" y="11.9539" width="13.6201" height="8.77222" filterUnits="userSpaceOnUse" color-interpolation-filters="sRGB">
<feFlood flood-opacity="0" result="BackgroundImageFix"/>
<feColorMatrix in="SourceAlpha" type="matrix" values="0 0 0 0 0 0 0 0 0 0 0 0 0 0 0 0 0 0 127 0" result="hardAlpha"/>
<feOffset dx="1"/>
<feGaussianBlur stdDeviation="0.5"/>
<feComposite in2="hardAlpha" operator="out"/>
<feColorMatrix type="matrix" values="0 0 0 0 0 0 0 0 0 0 0 0 0 0 0 0 0 0 0.4 0"/>
<feBlend mode="normal" in2="BackgroundImageFix" result="effect1_dropShadow_197_2327"/>
<feBlend mode="normal" in="SourceGraphic" in2="effect1_dropShadow_197_2327" result="shape"/>
</filter>
<filter id="filter1_i_197_2327" x="18.9619" y="17.1179" width="3.83691" height="3.83691" filterUnits="userSpaceOnUse" color-interpolation-filters="sRGB">
<feFlood flood-opacity="0" result="BackgroundImageFix"/>
<feBlend mode="normal" in="SourceGraphic" in2="BackgroundImageFix" result="shape"/>
<feColorMatrix in="SourceAlpha" type="matrix" values="0 0 0 0 0 0 0 0 0 0 0 0 0 0 0 0 0 0 127 0" result="hardAlpha"/>
<feOffset dx="2" dy="2"/>
<feGaussianBlur stdDeviation="2"/>
<feComposite in2="hardAlpha" operator="arithmetic" k2="-1" k3="1"/>
<feColorMatrix type="matrix" values="0 0 0 0 0.0588235 0 0 0 0 0.0588235 0 0 0 0 0.0588235 0 0 0 0.8 0"/>
<feBlend mode="normal" in2="shape" result="effect1_innerShadow_197_2327"/>
</filter>
</defs>
</svg>
