<svg width="78" height="51" viewBox="0 0 78 51" fill="none" xmlns="http://www.w3.org/2000/svg">
    <path d="M65 32C65 28.0603 64.224 24.1593 62.7164 20.5195C61.2087 16.8797 58.999 13.5726 56.2132 10.7868C53.4274 8.00104 50.1203 5.79125 46.4805 4.28361C42.8407 2.77597 38.9397 2 35 2C31.0603 2 27.1593 2.77597 23.5195 4.28361C19.8797 5.79126 16.5726 8.00104 13.7868 10.7868C11.001 13.5726 8.79125 16.8797 7.28361 20.5195C5.77597 24.1593 5 28.0603 5 32H19.1679C19.1679 29.9209 19.5774 27.8622 20.3731 25.9413C21.1687 24.0205 22.3349 22.2752 23.805 20.805C25.2752 19.3349 27.0205 18.1687 28.9413 17.3731C30.8622 16.5774 32.9209 16.1679 35 16.1679C37.0791 16.1679 39.1378 16.5774 41.0587 17.3731C42.9795 18.1687 44.7248 19.3349 46.195 20.805C47.6651 22.2752 48.8313 24.0205 49.6269 25.9413C50.4226 27.8622 50.8321 29.9209 50.8321 32H65Z" fill="#DDDEE6"/>
    <path d="M65 32C65 26.8634 63.6811 21.8128 61.1697 17.3321C58.6582 12.8513 55.0383 9.09041 50.6568 6.40966L43.2626 18.4951C45.575 19.9098 47.4853 21.8945 48.8107 24.2592C50.136 26.6239 50.8321 29.2892 50.8321 32H65Z" fill="#92C74B"/>
    <g filter="url(#filter0_d_61_1041)">
        <path d="M32.1363 30.1014C34.6148 33.9519 37.5016 30.0682 49.5656 21.4306L32.1363 30.1014Z" fill="#07020E"/>
    </g>
    <path d="M32.2088 30.2461C30.5919 25.9618 35.4311 25.956 49.5548 21.4097L32.2088 30.2461Z" fill="#535353"/>
    <g filter="url(#filter1_i_61_1041)">
        <ellipse cx="34.0703" cy="29.0542" rx="1.37756" ry="1.37756" transform="rotate(41.523 34.0703 29.0542)" fill="#5C5C5C"/>
    </g>
    <path d="M58.4437 4.55107L64.4925 0.513113L65.1017 1.42574L62.4731 3.18052L64.4862 6.19604L67.1148 4.44126L67.726 5.35685L61.6772 9.3948L61.066 8.47922L63.7035 6.71853L61.6904 3.70301L59.053 5.4637L58.4437 4.55107ZM69.2225 7.59855L63.1737 11.6365L62.5645 10.7239L68.6132 6.68592L69.2225 7.59855ZM70.9315 14.2968C71.0726 14.1201 71.1818 13.9362 71.2592 13.7451C71.3398 13.5546 71.3863 13.3599 71.3987 13.1609C71.413 12.9607 71.3902 12.7581 71.3303 12.5533C71.2718 12.3504 71.1754 12.1486 71.0414 11.9478C70.814 11.6071 70.5213 11.3584 70.1633 11.2017C69.8054 11.045 69.4039 11 68.9587 11.0666C68.5169 11.1338 68.0518 11.3304 67.5635 11.6564C67.0732 11.9837 66.712 12.3401 66.4798 12.7257C66.2476 13.1113 66.1365 13.5014 66.1466 13.896C66.1567 14.2906 66.28 14.6651 66.5166 15.0195C66.7362 15.3484 66.9943 15.5902 67.2912 15.7449C67.5894 15.9017 67.9053 15.9655 68.2388 15.9364C68.5757 15.908 68.9104 15.7827 69.2432 15.5605L69.3566 15.8264L68.2012 14.0956L68.9544 13.5929L70.5416 15.9704L69.8534 16.4298C69.3454 16.769 68.8321 16.9551 68.3134 16.9882C67.7979 17.0221 67.312 16.9166 66.8555 16.672C66.4003 16.4294 66.0097 16.0639 65.6838 15.5756C65.3183 15.0282 65.1236 14.4636 65.0996 13.8819C65.0769 13.3021 65.2201 12.7426 65.529 12.2033C65.8399 11.6627 66.3143 11.1795 66.9523 10.7536C67.4347 10.4316 67.9125 10.2094 68.3859 10.0869C68.8592 9.96452 69.3106 9.93502 69.7401 9.99845C70.1728 10.0625 70.5698 10.2117 70.9311 10.4458C71.2957 10.6807 71.6087 10.994 71.8703 11.3858C72.0885 11.7127 72.2433 12.0491 72.3348 12.3951C72.4276 12.743 72.459 13.0864 72.429 13.4252C72.4004 13.766 72.3126 14.0908 72.1657 14.3995C72.0208 14.7069 71.8177 14.9847 71.5565 15.2331L70.9315 14.2968ZM68.2197 19.1952L74.2684 15.1573L74.8777 16.0699L72.2491 17.8247L74.2621 20.8402L76.8908 19.0854L77.502 20.001L71.4532 24.039L70.842 23.1234L73.4795 21.3627L71.4664 18.3472L68.8289 20.1079L68.2197 19.1952Z" fill="#414755"/>
    <path d="M0.789062 50V42H3.85156C4.42969 42 4.91016 42.0911 5.29297 42.2734C5.67839 42.4531 5.96615 42.6992 6.15625 43.0117C6.34896 43.3242 6.44531 43.6784 6.44531 44.0742C6.44531 44.3997 6.38281 44.6784 6.25781 44.9102C6.13281 45.1393 5.96484 45.3255 5.75391 45.4687C5.54297 45.612 5.30729 45.7148 5.04688 45.7773V45.8555C5.33073 45.8711 5.60286 45.9583 5.86328 46.1172C6.1263 46.2734 6.34115 46.4948 6.50781 46.7812C6.67448 47.0677 6.75781 47.4141 6.75781 47.8203C6.75781 48.2344 6.65755 48.6068 6.45703 48.9375C6.25651 49.2656 5.95443 49.5247 5.55078 49.7148C5.14714 49.9049 4.63932 50 4.02734 50H0.789062ZM2.23828 48.7891H3.79688C4.32292 48.7891 4.70182 48.6888 4.93359 48.4883C5.16797 48.2852 5.28516 48.0247 5.28516 47.707C5.28516 47.4701 5.22656 47.2565 5.10938 47.0664C4.99219 46.8737 4.82552 46.7227 4.60938 46.6133C4.39323 46.5013 4.13542 46.4453 3.83594 46.4453H2.23828V48.7891ZM2.23828 45.4023H3.67188C3.92188 45.4023 4.14714 45.3568 4.34766 45.2656C4.54818 45.1719 4.70573 45.0404 4.82031 44.8711C4.9375 44.6992 4.99609 44.4961 4.99609 44.2617C4.99609 43.9518 4.88672 43.6966 4.66797 43.4961C4.45182 43.2956 4.13021 43.1953 3.70313 43.1953H2.23828V45.4023ZM9.46777 42V50H8.01855V42H9.46777ZM17.6113 42V50H16.3223L12.5527 44.5508H12.4863V50H11.0371V42H12.334L16.0996 47.4531H16.1699V42H17.6113ZM24.8994 47.3125H26.2119L26.9893 48.3203L27.5439 48.9766L28.876 50.6875H27.4697L26.5635 49.5391L26.1768 48.9922L24.8994 47.3125ZM29.0674 46C29.0674 46.862 28.9059 47.6003 28.583 48.2148C28.2627 48.8268 27.8252 49.2956 27.2705 49.6211C26.7184 49.9466 26.0921 50.1094 25.3916 50.1094C24.6911 50.1094 24.0635 49.9466 23.5088 49.6211C22.9567 49.293 22.5192 48.8229 22.1963 48.2109C21.876 47.5964 21.7158 46.8594 21.7158 46C21.7158 45.138 21.876 44.401 22.1963 43.7891C22.5192 43.1745 22.9567 42.7044 23.5088 42.3789C24.0635 42.0534 24.6911 41.8906 25.3916 41.8906C26.0921 41.8906 26.7184 42.0534 27.2705 42.3789C27.8252 42.7044 28.2627 43.1745 28.583 43.7891C28.9059 44.401 29.0674 45.138 29.0674 46ZM27.6104 46C27.6104 45.3932 27.5153 44.8815 27.3252 44.4648C27.1377 44.0456 26.8773 43.7292 26.5439 43.5156C26.2106 43.2995 25.8265 43.1914 25.3916 43.1914C24.9567 43.1914 24.5726 43.2995 24.2393 43.5156C23.9059 43.7292 23.6442 44.0456 23.4541 44.4648C23.2666 44.8815 23.1729 45.3932 23.1729 46C23.1729 46.6068 23.2666 47.1198 23.4541 47.5391C23.6442 47.9557 23.9059 48.2721 24.2393 48.4883C24.5726 48.7018 24.9567 48.8086 25.3916 48.8086C25.8265 48.8086 26.2106 48.7018 26.5439 48.4883C26.8773 48.2721 27.1377 47.9557 27.3252 47.5391C27.5153 47.1198 27.6104 46.6068 27.6104 46ZM35.4912 42H36.9404V47.2266C36.9404 47.7995 36.805 48.3034 36.5342 48.7383C36.266 49.1732 35.8883 49.513 35.4014 49.7578C34.9144 50 34.3454 50.1211 33.6943 50.1211C33.0407 50.1211 32.4704 50 31.9834 49.7578C31.4964 49.513 31.1188 49.1732 30.8506 48.7383C30.5824 48.3034 30.4482 47.7995 30.4482 47.2266V42H31.8975V47.1055C31.8975 47.4388 31.9704 47.7357 32.1162 47.9961C32.2646 48.2565 32.473 48.4609 32.7412 48.6094C33.0094 48.7552 33.3271 48.8281 33.6943 48.8281C34.0615 48.8281 34.3792 48.7552 34.6475 48.6094C34.9183 48.4609 35.1266 48.2565 35.2725 47.9961C35.4183 47.7357 35.4912 47.4388 35.4912 47.1055V42ZM39.543 50H37.9961L40.8125 42H42.6016L45.4219 50H43.875L41.7383 43.6406H41.6758L39.543 50ZM39.5938 46.8633H43.8125V48.0273H39.5938V46.8633ZM46.4756 50V42H47.9248V48.7852H51.4482V50H46.4756ZM54.1553 42V50H52.7061V42H54.1553ZM55.373 43.2148V42H61.7559V43.2148H59.2832V50H57.8457V43.2148H55.373ZM62.4395 42H64.0762L66.0332 45.5391H66.1113L68.0684 42H69.7051L66.7949 47.0156V50H65.3496V47.0156L62.4395 42Z" fill="#07020E"/>
    <defs>
        <filter id="filter0_d_61_1041" x="32.1362" y="20.4307" width="19.4294" height="12.1582" filterUnits="userSpaceOnUse" color-interpolation-filters="sRGB">
            <feFlood flood-opacity="0" result="BackgroundImageFix"/>
            <feColorMatrix in="SourceAlpha" type="matrix" values="0 0 0 0 0 0 0 0 0 0 0 0 0 0 0 0 0 0 127 0" result="hardAlpha"/>
            <feOffset dx="1"/>
            <feGaussianBlur stdDeviation="0.5"/>
            <feComposite in2="hardAlpha" operator="out"/>
            <feColorMatrix type="matrix" values="0 0 0 0 0 0 0 0 0 0 0 0 0 0 0 0 0 0 0.4 0"/>
            <feBlend mode="normal" in2="BackgroundImageFix" result="effect1_dropShadow_61_1041"/>
            <feBlend mode="normal" in="SourceGraphic" in2="effect1_dropShadow_61_1041" result="shape"/>
        </filter>
        <filter id="filter1_i_61_1041" x="32.6926" y="27.6765" width="4.75513" height="4.75537" filterUnits="userSpaceOnUse" color-interpolation-filters="sRGB">
            <feFlood flood-opacity="0" result="BackgroundImageFix"/>
            <feBlend mode="normal" in="SourceGraphic" in2="BackgroundImageFix" result="shape"/>
            <feColorMatrix in="SourceAlpha" type="matrix" values="0 0 0 0 0 0 0 0 0 0 0 0 0 0 0 0 0 0 127 0" result="hardAlpha"/>
            <feOffset dx="2" dy="2"/>
            <feGaussianBlur stdDeviation="2"/>
            <feComposite in2="hardAlpha" operator="arithmetic" k2="-1" k3="1"/>
            <feColorMatrix type="matrix" values="0 0 0 0 0.0588235 0 0 0 0 0.0588235 0 0 0 0 0.0588235 0 0 0 0.8 0"/>
            <feBlend mode="normal" in2="shape" result="effect1_innerShadow_61_1041"/>
        </filter>
    </defs>
</svg>
