<svg width="32" height="32" viewBox="0 0 32 32" fill="none" xmlns="http://www.w3.org/2000/svg">
<g id="orcid logo" clip-path="url(#clip0_454_1114)">
<path id="Vector" d="M16 32C24.8366 32 32 24.8366 32 16C32 7.16344 24.8366 0 16 0C7.16344 0 0 7.16344 0 16C0 24.8366 7.16344 32 16 32Z" fill="#A6CE39"/>
<path id="Vector_2" d="M10.8125 23.25H8.875V9.875H10.8125V23.25ZM13.625 9.875H18.8125C23.75 9.875 25.9375 13.4375 25.9375 16.5625C25.9375 20 23.25 23.25 18.8125 23.25H13.5625L13.625 9.875ZM15.5625 21.5625H18.625C23 21.5625 24 18.25 24 16.625C24 13.9375 22.3125 11.6875 18.5625 11.6875H15.625L15.5625 21.5625ZM11.125 7.125C11.125 7.8125 10.5625 8.375 9.875 8.375C9.1875 8.375 8.625 7.8125 8.625 7.125C8.625 6.79348 8.7567 6.47554 8.99112 6.24112C9.22554 6.0067 9.54348 5.875 9.875 5.875C10.5625 5.875 11.125 6.4375 11.125 7.125Z" fill="white"/>
</g>
<defs>
<clipPath id="clip0_454_1114">
<rect width="32" height="32" fill="white"/>
</clipPath>
</defs>
</svg>
