<svg width="76" height="50" viewBox="0 0 76 50" fill="none" xmlns="http://www.w3.org/2000/svg">
    <path d="M71 31C71 27.0603 70.224 23.1593 68.7164 19.5195C67.2087 15.8797 64.999 12.5726 62.2132 9.7868C59.4274 7.00104 56.1203 4.79125 52.4805 3.28361C48.8407 1.77597 44.9397 1 41 1C37.0603 1 33.1593 1.77597 29.5195 3.28361C25.8797 4.79126 22.5726 7.00104 19.7868 9.7868C17.001 12.5726 14.7913 15.8797 13.2836 19.5195C11.776 23.1593 11 27.0603 11 31H25.1679C25.1679 28.9209 25.5774 26.8622 26.3731 24.9413C27.1687 23.0205 28.3349 21.2752 29.805 19.805C31.2752 18.3349 33.0205 17.1687 34.9413 16.3731C36.8622 15.5774 38.9209 15.1679 41 15.1679C43.0791 15.1679 45.1378 15.5774 47.0587 16.3731C48.9795 17.1687 50.7248 18.3349 52.195 19.805C53.6651 21.2752 54.8313 23.0205 55.6269 24.9413C56.4226 26.8622 56.8321 28.9209 56.8321 31H71Z" fill="#DDDEE6"/>
    <path d="M26.1326 4.94316C21.5568 7.55398 17.7492 11.3237 15.0929 15.8732C12.4365 20.4227 11.025 25.5915 11.0003 30.8596L25.1681 30.9259C25.1811 28.1457 25.926 25.418 27.3279 23.0171C28.7297 20.6161 30.7391 18.6267 33.1539 17.2489L26.1326 4.94316Z" fill="#F02700"/>
    <g filter="url(#filter0_d_61_1040)">
        <path d="M42.0072 29.4014C43.5333 25.084 38.6951 25.1803 24.4787 20.9329L42.0072 29.4014Z" fill="#07020E"/>
    </g>
    <path d="M42.077 29.2555C39.6803 33.1574 36.7121 29.3354 24.4686 20.9542L42.077 29.2555Z" fill="#535353"/>
    <g filter="url(#filter1_i_61_1040)">
        <ellipse cx="39.9947" cy="28.5138" rx="1.37756" ry="1.37756" transform="rotate(-86.2408 39.9947 28.5138)" fill="#5C5C5C"/>
    </g>
    <path d="M6.46541 23.2001L0.162212 19.5721L0.709598 18.6211L6.19412 21.7778L7.83805 18.9217L8.65673 19.3929L6.46541 23.2001ZM9.13975 11.2642C9.81275 11.6516 10.3205 12.1077 10.663 12.6326C11.0035 13.1564 11.1806 13.7077 11.1943 14.2865C11.2072 14.8621 11.0572 15.4217 10.7442 15.9655C10.4301 16.5112 10.0203 16.9241 9.51498 17.2042C9.00876 17.481 8.44267 17.6031 7.81672 17.5706C7.19077 17.5381 6.54233 17.3288 5.87138 16.9426C5.19838 16.5552 4.69165 16.0997 4.35119 15.5759C4.00868 15.051 3.83098 14.5008 3.8181 13.9252C3.80434 13.3464 3.95453 12.7841 4.26868 12.2383C4.58164 11.6945 4.99123 11.2843 5.49746 11.0075C6.00281 10.7275 6.56846 10.6037 7.19441 10.6362C7.81831 10.6675 8.46676 10.8768 9.13975 11.2642ZM8.59768 12.206C8.08473 11.9107 7.60499 11.7452 7.15847 11.7095C6.71107 11.6705 6.31443 11.7427 5.96853 11.926C5.62176 12.1061 5.34445 12.3767 5.1366 12.7378C4.92756 13.101 4.83227 13.4777 4.85073 13.8681C4.86713 14.2572 5.00396 14.6364 5.26121 15.0057C5.5176 15.3718 5.90227 15.7025 6.41522 15.9977C6.92818 16.293 7.40835 16.4601 7.85574 16.4991C8.30227 16.5348 8.69891 16.4627 9.04568 16.2826C9.3904 16.1013 9.66727 15.8291 9.87631 15.4659C10.0842 15.1048 10.1799 14.7297 10.1635 14.3405C10.1462 13.9482 10.0094 13.5689 9.753 13.2028C9.49574 12.8335 9.11064 12.5012 8.59768 12.206ZM13.6403 10.7345L6.33093 8.85466L6.90666 7.8544L12.4948 9.43594L12.5284 9.37746L8.3823 5.29064L8.95272 4.29961L14.5722 5.83369L14.6059 5.77521L10.4266 1.73894L11.0041 0.735598L16.2993 6.11481L15.7484 7.07199L10.2636 5.68105L10.2353 5.73029L14.193 9.77424L13.6403 10.7345Z" fill="#414755"/>
    <path d="M6.78906 49V41H9.85156C10.4297 41 10.9102 41.0911 11.293 41.2734C11.6784 41.4531 11.9661 41.6992 12.1563 42.0117C12.349 42.3242 12.4453 42.6784 12.4453 43.0742C12.4453 43.3997 12.3828 43.6784 12.2578 43.9102C12.1328 44.1393 11.9648 44.3255 11.7539 44.4687C11.543 44.612 11.3073 44.7148 11.0469 44.7773V44.8555C11.3307 44.8711 11.6029 44.9583 11.8633 45.1172C12.1263 45.2734 12.3411 45.4948 12.5078 45.7812C12.6745 46.0677 12.7578 46.4141 12.7578 46.8203C12.7578 47.2344 12.6576 47.6068 12.457 47.9375C12.2565 48.2656 11.9544 48.5247 11.5508 48.7148C11.1471 48.9049 10.6393 49 10.0273 49H6.78906ZM8.23828 47.7891H9.79688C10.3229 47.7891 10.7018 47.6888 10.9336 47.4883C11.168 47.2852 11.2852 47.0247 11.2852 46.707C11.2852 46.4701 11.2266 46.2565 11.1094 46.0664C10.9922 45.8737 10.8255 45.7227 10.6094 45.6133C10.3932 45.5013 10.1354 45.4453 9.83594 45.4453H8.23828V47.7891ZM8.23828 44.4023H9.67188C9.92188 44.4023 10.1471 44.3568 10.3477 44.2656C10.5482 44.1719 10.7057 44.0404 10.8203 43.8711C10.9375 43.6992 10.9961 43.4961 10.9961 43.2617C10.9961 42.9518 10.8867 42.6966 10.668 42.4961C10.4518 42.2956 10.1302 42.1953 9.70313 42.1953H8.23828V44.4023ZM15.4678 41V49H14.0186V41H15.4678ZM23.6113 41V49H22.3223L18.5527 43.5508H18.4863V49H17.0371V41H18.334L22.0996 46.4531H22.1699V41H23.6113ZM30.8994 46.3125H32.2119L32.9893 47.3203L33.5439 47.9766L34.876 49.6875H33.4697L32.5635 48.5391L32.1768 47.9922L30.8994 46.3125ZM35.0674 45C35.0674 45.862 34.9059 46.6003 34.583 47.2148C34.2627 47.8268 33.8252 48.2956 33.2705 48.6211C32.7184 48.9466 32.0921 49.1094 31.3916 49.1094C30.6911 49.1094 30.0635 48.9466 29.5088 48.6211C28.9567 48.293 28.5192 47.8229 28.1963 47.2109C27.876 46.5964 27.7158 45.8594 27.7158 45C27.7158 44.138 27.876 43.401 28.1963 42.7891C28.5192 42.1745 28.9567 41.7044 29.5088 41.3789C30.0635 41.0534 30.6911 40.8906 31.3916 40.8906C32.0921 40.8906 32.7184 41.0534 33.2705 41.3789C33.8252 41.7044 34.2627 42.1745 34.583 42.7891C34.9059 43.401 35.0674 44.138 35.0674 45ZM33.6104 45C33.6104 44.3932 33.5153 43.8815 33.3252 43.4648C33.1377 43.0456 32.8773 42.7292 32.5439 42.5156C32.2106 42.2995 31.8265 42.1914 31.3916 42.1914C30.9567 42.1914 30.5726 42.2995 30.2393 42.5156C29.9059 42.7292 29.6442 43.0456 29.4541 43.4648C29.2666 43.8815 29.1729 44.3932 29.1729 45C29.1729 45.6068 29.2666 46.1198 29.4541 46.5391C29.6442 46.9557 29.9059 47.2721 30.2393 47.4883C30.5726 47.7018 30.9567 47.8086 31.3916 47.8086C31.8265 47.8086 32.2106 47.7018 32.5439 47.4883C32.8773 47.2721 33.1377 46.9557 33.3252 46.5391C33.5153 46.1198 33.6104 45.6068 33.6104 45ZM41.4912 41H42.9404V46.2266C42.9404 46.7995 42.805 47.3034 42.5342 47.7383C42.266 48.1732 41.8883 48.513 41.4014 48.7578C40.9144 49 40.3454 49.1211 39.6943 49.1211C39.0407 49.1211 38.4704 49 37.9834 48.7578C37.4964 48.513 37.1188 48.1732 36.8506 47.7383C36.5824 47.3034 36.4482 46.7995 36.4482 46.2266V41H37.8975V46.1055C37.8975 46.4388 37.9704 46.7357 38.1162 46.9961C38.2646 47.2565 38.473 47.4609 38.7412 47.6094C39.0094 47.7552 39.3271 47.8281 39.6943 47.8281C40.0615 47.8281 40.3792 47.7552 40.6475 47.6094C40.9183 47.4609 41.1266 47.2565 41.2725 46.9961C41.4183 46.7357 41.4912 46.4388 41.4912 46.1055V41ZM45.543 49H43.9961L46.8125 41H48.6016L51.4219 49H49.875L47.7383 42.6406H47.6758L45.543 49ZM45.5938 45.8633H49.8125V47.0273H45.5938V45.8633ZM52.4756 49V41H53.9248V47.7852H57.4482V49H52.4756ZM60.1553 41V49H58.7061V41H60.1553ZM61.373 42.2148V41H67.7559V42.2148H65.2832V49H63.8457V42.2148H61.373ZM68.4395 41H70.0762L72.0332 44.5391H72.1113L74.0684 41H75.7051L72.7949 46.0156V49H71.3496V46.0156L68.4395 41Z" fill="#07020E"/>
    <defs>
        <filter id="filter0_d_61_1040" x="24.4788" y="19.9329" width="19.7979" height="10.4685" filterUnits="userSpaceOnUse" color-interpolation-filters="sRGB">
            <feFlood flood-opacity="0" result="BackgroundImageFix"/>
            <feColorMatrix in="SourceAlpha" type="matrix" values="0 0 0 0 0 0 0 0 0 0 0 0 0 0 0 0 0 0 127 0" result="hardAlpha"/>
            <feOffset dx="1"/>
            <feGaussianBlur stdDeviation="0.5"/>
            <feComposite in2="hardAlpha" operator="out"/>
            <feColorMatrix type="matrix" values="0 0 0 0 0 0 0 0 0 0 0 0 0 0 0 0 0 0 0.4 0"/>
            <feBlend mode="normal" in2="BackgroundImageFix" result="effect1_dropShadow_61_1040"/>
            <feBlend mode="normal" in="SourceGraphic" in2="effect1_dropShadow_61_1040" result="shape"/>
        </filter>
        <filter id="filter1_i_61_1040" x="38.6172" y="27.1362" width="4.75513" height="4.75513" filterUnits="userSpaceOnUse" color-interpolation-filters="sRGB">
            <feFlood flood-opacity="0" result="BackgroundImageFix"/>
            <feBlend mode="normal" in="SourceGraphic" in2="BackgroundImageFix" result="shape"/>
            <feColorMatrix in="SourceAlpha" type="matrix" values="0 0 0 0 0 0 0 0 0 0 0 0 0 0 0 0 0 0 127 0" result="hardAlpha"/>
            <feOffset dx="2" dy="2"/>
            <feGaussianBlur stdDeviation="2"/>
            <feComposite in2="hardAlpha" operator="arithmetic" k2="-1" k3="1"/>
            <feColorMatrix type="matrix" values="0 0 0 0 0.0588235 0 0 0 0 0.0588235 0 0 0 0 0.0588235 0 0 0 0.8 0"/>
            <feBlend mode="normal" in2="shape" result="effect1_innerShadow_61_1040"/>
        </filter>
    </defs>
</svg>
