<svg width="41" height="20" viewBox="0 0 41 20" fill="none" xmlns="http://www.w3.org/2000/svg">
<g id="quality">
<g id="Group 16">
<g id="Group 14">
<path id="Ellipse 6" d="M40.5 20C40.5 17.3736 39.9827 14.7728 38.9776 12.3463C37.9725 9.91982 36.4993 7.71504 34.6421 5.85786C32.785 4.00069 30.5802 2.5275 28.1537 1.52241C25.7272 0.517315 23.1264 -1.14805e-07 20.5 0C17.8736 1.14805e-07 15.2728 0.517316 12.8463 1.52241C10.4198 2.5275 8.21503 4.00069 6.35786 5.85787C4.50069 7.71504 3.0275 9.91982 2.02241 12.3463C1.01731 14.7728 0.5 17.3736 0.5 20L9.94529 20C9.94529 18.6139 10.2183 17.2414 10.7487 15.9609C11.2791 14.6803 12.0566 13.5168 13.0367 12.5367C14.0168 11.5566 15.1803 10.7791 16.4609 10.2487C17.7414 9.71829 19.1139 9.44529 20.5 9.44529C21.8861 9.44529 23.2586 9.71829 24.5391 10.2487C25.8197 10.7791 26.9832 11.5566 27.9633 12.5367C28.9434 13.5168 29.7209 14.6803 30.2513 15.9609C30.7817 17.2414 31.0547 18.6139 31.0547 20H40.5Z" fill="#DDDEE6"/>
<path id="Ellipse 8" d="M10.5884 2.62877C7.53786 4.36932 4.99948 6.88249 3.22857 9.91547C1.45766 12.9485 0.516654 16.3943 0.500219 19.9064L9.9454 19.9506C9.95407 18.0971 10.4507 16.2787 11.3852 14.678C12.3198 13.0774 13.6594 11.7511 15.2693 10.8326L10.5884 2.62877Z" fill="#F02700"/>
</g>
<g id="Group 10">
<g id="Vector 1" filter="url(#filter0_d_197_2360)">
<path d="M21.1718 18.9343C22.1892 16.056 18.9638 16.1202 9.48611 13.2886L21.1718 18.9343Z" fill="#07020E"/>
</g>
<path id="Vector 2" d="M21.2183 18.837C19.6205 21.4383 17.6418 18.8903 9.47942 13.3028L21.2183 18.837Z" fill="#535353"/>
<g id="Ellipse 5" filter="url(#filter1_i_197_2360)">
<ellipse cx="19.8301" cy="18.3425" rx="0.918371" ry="0.918371" transform="rotate(-86.2408 19.8301 18.3425)" fill="#5C5C5C"/>
</g>
</g>
</g>
</g>
<defs>
<filter id="filter0_d_197_2360" x="9.48633" y="12.2886" width="13.8652" height="7.64575" filterUnits="userSpaceOnUse" color-interpolation-filters="sRGB">
<feFlood flood-opacity="0" result="BackgroundImageFix"/>
<feColorMatrix in="SourceAlpha" type="matrix" values="0 0 0 0 0 0 0 0 0 0 0 0 0 0 0 0 0 0 127 0" result="hardAlpha"/>
<feOffset dx="1"/>
<feGaussianBlur stdDeviation="0.5"/>
<feComposite in2="hardAlpha" operator="out"/>
<feColorMatrix type="matrix" values="0 0 0 0 0 0 0 0 0 0 0 0 0 0 0 0 0 0 0.4 0"/>
<feBlend mode="normal" in2="BackgroundImageFix" result="effect1_dropShadow_197_2360"/>
<feBlend mode="normal" in="SourceGraphic" in2="effect1_dropShadow_197_2360" result="shape"/>
</filter>
<filter id="filter1_i_197_2360" x="18.9121" y="17.4241" width="3.83594" height="3.83691" filterUnits="userSpaceOnUse" color-interpolation-filters="sRGB">
<feFlood flood-opacity="0" result="BackgroundImageFix"/>
<feBlend mode="normal" in="SourceGraphic" in2="BackgroundImageFix" result="shape"/>
<feColorMatrix in="SourceAlpha" type="matrix" values="0 0 0 0 0 0 0 0 0 0 0 0 0 0 0 0 0 0 127 0" result="hardAlpha"/>
<feOffset dx="2" dy="2"/>
<feGaussianBlur stdDeviation="2"/>
<feComposite in2="hardAlpha" operator="arithmetic" k2="-1" k3="1"/>
<feColorMatrix type="matrix" values="0 0 0 0 0.0588235 0 0 0 0 0.0588235 0 0 0 0 0.0588235 0 0 0 0.8 0"/>
<feBlend mode="normal" in2="shape" result="effect1_innerShadow_197_2360"/>
</filter>
</defs>
</svg>
