<svg width="41" height="22" viewBox="0 0 41 22" fill="none" xmlns="http://www.w3.org/2000/svg">
<g id="quality">
<g id="Group 12">
<path id="Ellipse 6" d="M40.5 20C40.5 17.3736 39.9827 14.7728 38.9776 12.3463C37.9725 9.91982 36.4993 7.71504 34.6421 5.85786C32.785 4.00069 30.5802 2.5275 28.1537 1.52241C25.7272 0.517315 23.1264 -1.14805e-07 20.5 0C17.8736 1.14805e-07 15.2728 0.517316 12.8463 1.52241C10.4198 2.5275 8.21503 4.00069 6.35786 5.85787C4.50069 7.71504 3.0275 9.91982 2.02241 12.3463C1.01731 14.7728 0.5 17.3736 0.5 20L9.94529 20C9.94529 18.6139 10.2183 17.2414 10.7487 15.9609C11.2791 14.6803 12.0566 13.5168 13.0367 12.5367C14.0168 11.5566 15.1803 10.7791 16.4609 10.2487C17.7414 9.71829 19.1139 9.44529 20.5 9.44529C21.8861 9.44529 23.2586 9.71829 24.5391 10.2487C25.8197 10.7791 26.9832 11.5566 27.9633 12.5367C28.9434 13.5168 29.7209 14.6803 30.2513 15.9609C30.7817 17.2414 31.0547 18.6139 31.0547 20H40.5Z" fill="#DDDEE6"/>
<path id="Ellipse 7" d="M31.1953 3.10001C28.1002 1.14123 24.5266 0.0700521 20.8644 0.00331949C17.2021 -0.0634131 13.5919 0.876864 10.4275 2.72158L15.1844 10.8816C16.8543 9.90804 18.7596 9.41182 20.6923 9.44704C22.625 9.48225 24.5109 10.0476 26.1443 11.0813L31.1953 3.10001Z" fill="#F4DC5E"/>
</g>
<g id="Group 11">
<g id="Vector 1" filter="url(#filter0_d_197_2344)">
<path d="M19.9679 20.1078C23.0088 19.8383 21.6112 16.9307 20.2521 7.1329L19.9679 20.1078Z" fill="#07020E"/>
</g>
<path id="Vector 2" d="M20.0757 20.1097C17.0459 19.7361 18.5423 16.8781 20.2365 7.13268L20.0757 20.1097Z" fill="#535353"/>
<g id="Ellipse 5" filter="url(#filter1_i_197_2344)">
<ellipse cx="19.949" cy="18.6416" rx="0.918371" ry="0.918371" transform="rotate(-20.7722 19.949 18.6416)" fill="#5C5C5C"/>
</g>
</g>
</g>
<defs>
<filter id="filter0_d_197_2344" x="19.9678" y="6.13281" width="3.81738" height="14.9749" filterUnits="userSpaceOnUse" color-interpolation-filters="sRGB">
<feFlood flood-opacity="0" result="BackgroundImageFix"/>
<feColorMatrix in="SourceAlpha" type="matrix" values="0 0 0 0 0 0 0 0 0 0 0 0 0 0 0 0 0 0 127 0" result="hardAlpha"/>
<feOffset dx="1"/>
<feGaussianBlur stdDeviation="0.5"/>
<feComposite in2="hardAlpha" operator="out"/>
<feColorMatrix type="matrix" values="0 0 0 0 0 0 0 0 0 0 0 0 0 0 0 0 0 0 0.4 0"/>
<feBlend mode="normal" in2="BackgroundImageFix" result="effect1_dropShadow_197_2344"/>
<feBlend mode="normal" in="SourceGraphic" in2="effect1_dropShadow_197_2344" result="shape"/>
</filter>
<filter id="filter1_i_197_2344" x="19.0303" y="17.7229" width="3.83691" height="3.8374" filterUnits="userSpaceOnUse" color-interpolation-filters="sRGB">
<feFlood flood-opacity="0" result="BackgroundImageFix"/>
<feBlend mode="normal" in="SourceGraphic" in2="BackgroundImageFix" result="shape"/>
<feColorMatrix in="SourceAlpha" type="matrix" values="0 0 0 0 0 0 0 0 0 0 0 0 0 0 0 0 0 0 127 0" result="hardAlpha"/>
<feOffset dx="2" dy="2"/>
<feGaussianBlur stdDeviation="2"/>
<feComposite in2="hardAlpha" operator="arithmetic" k2="-1" k3="1"/>
<feColorMatrix type="matrix" values="0 0 0 0 0.0588235 0 0 0 0 0.0588235 0 0 0 0 0.0588235 0 0 0 0.8 0"/>
<feBlend mode="normal" in2="shape" result="effect1_innerShadow_197_2344"/>
</filter>
</defs>
</svg>
