<svg width="70" height="62" viewBox="0 0 70 62" fill="none" xmlns="http://www.w3.org/2000/svg">
    <path d="M65 43C65 39.0603 64.224 35.1593 62.7164 31.5195C61.2087 27.8797 58.999 24.5726 56.2132 21.7868C53.4274 19.001 50.1203 16.7913 46.4805 15.2836C42.8407 13.776 38.9397 13 35 13C31.0603 13 27.1593 13.776 23.5195 15.2836C19.8797 16.7913 16.5726 19.001 13.7868 21.7868C11.001 24.5726 8.79125 27.8797 7.28361 31.5195C5.77597 35.1593 5 39.0603 5 43H19.1679C19.1679 40.9209 19.5774 38.8622 20.3731 36.9413C21.1687 35.0205 22.3349 33.2752 23.805 31.805C25.2752 30.3349 27.0205 29.1687 28.9413 28.3731C30.8622 27.5774 32.9209 27.1679 35 27.1679C37.0791 27.1679 39.1378 27.5774 41.0587 28.3731C42.9795 29.1687 44.7248 30.3349 46.195 31.805C47.6651 33.2752 48.8313 35.0205 49.6269 36.9413C50.4226 38.8622 50.8321 40.9209 50.8321 43H65Z" fill="#DDDEE6"/>
    <path d="M51.043 17.65C46.4003 14.7118 41.0399 13.1051 35.5466 13.005C30.0532 12.9049 24.6378 14.3153 19.8912 17.0824L27.0265 29.3223C29.5315 27.8621 32.3894 27.1177 35.2884 27.1706C38.1875 27.2234 41.0164 28.0713 43.4665 29.6219L51.043 17.65Z" fill="#F4DC5E"/>
    <g filter="url(#filter0_d_61_1039)">
        <path d="M34.2021 43.162C38.7634 42.7579 36.6671 38.3964 34.6285 23.6997L34.2021 43.162Z" fill="#07020E"/>
    </g>
    <path d="M34.3638 43.1649C29.819 42.6046 32.0637 38.3175 34.6049 23.6994L34.3638 43.1649Z" fill="#535353"/>
    <g filter="url(#filter1_i_61_1039)">
        <ellipse cx="34.174" cy="40.9625" rx="1.37756" ry="1.37756" transform="rotate(-20.7722 34.174 40.9625)" fill="#5C5C5C"/>
    </g>
    <path d="M15.799 0.727273L17.1307 0.727273L19.446 6.38068H19.5312L21.8466 0.727273H23.1783V8L22.1342 8V2.73722H22.0668L19.9219 7.98935H19.0554L16.9105 2.73366H16.843V8H15.799V0.727273ZM24.7736 8V0.727273L29.3333 0.727273V1.67187L25.8709 1.67187V3.88778L29.0953 3.88778V4.82884L25.8709 4.82884V7.0554H29.3759V8H24.7736ZM33.1534 8H30.799V0.727273L33.228 0.727273C33.9406 0.727273 34.5526 0.872869 35.0639 1.16406C35.5753 1.45289 35.9671 1.86837 36.2393 2.41051C36.514 2.95028 36.6513 3.59777 36.6513 4.35298C36.6513 5.11056 36.5128 5.7616 36.2358 6.30611C35.9612 6.85062 35.5634 7.26965 35.0426 7.56321C34.5218 7.8544 33.892 8 33.1534 8ZM31.8963 7.04119H33.093C33.647 7.04119 34.1075 6.93703 34.4744 6.72869C34.8414 6.51799 35.116 6.21378 35.2983 5.81605C35.4806 5.41596 35.5717 4.92827 35.5717 4.35298C35.5717 3.78243 35.4806 3.2983 35.2983 2.90057C35.1184 2.50284 34.8497 2.20099 34.4922 1.99503C34.1347 1.78906 33.6908 1.68608 33.1605 1.68608H31.8963V7.04119ZM39.1131 0.727273V8L38.0158 8V0.727273H39.1131ZM45.388 0.727273L46.4888 0.727273V5.51065C46.4888 6.01965 46.3693 6.47064 46.1301 6.86364C45.891 7.25426 45.5549 7.56203 45.1216 7.78693C44.6884 8.00947 44.1806 8.12074 43.5982 8.12074C43.0182 8.12074 42.5115 8.00947 42.0783 7.78693C41.6451 7.56203 41.3089 7.25426 41.0698 6.86364C40.8307 6.47064 40.7111 6.01965 40.7111 5.51065V0.727273L41.8084 0.727273V5.42187C41.8084 5.75095 41.8806 6.04332 42.025 6.29901C42.1718 6.55469 42.379 6.75592 42.6465 6.9027C42.914 7.04711 43.2312 7.11932 43.5982 7.11932C43.9675 7.11932 44.2859 7.04711 44.5534 6.9027C44.8233 6.75592 45.0293 6.55469 45.1713 6.29901C45.3158 6.04332 45.388 5.75095 45.388 5.42187V0.727273ZM48.0842 0.727273L49.4158 0.727273L51.7312 6.38068H51.8164L54.1317 0.727273H55.4634V8L54.4194 8V2.73722H54.3519L52.207 7.98935H51.3406L49.1957 2.73366H49.1282V8H48.0842V0.727273Z" fill="#414755"/>
    <path d="M0.789062 61V53H3.85156C4.42969 53 4.91016 53.0911 5.29297 53.2734C5.67839 53.4531 5.96615 53.6992 6.15625 54.0117C6.34896 54.3242 6.44531 54.6784 6.44531 55.0742C6.44531 55.3997 6.38281 55.6784 6.25781 55.9102C6.13281 56.1393 5.96484 56.3255 5.75391 56.4687C5.54297 56.612 5.30729 56.7148 5.04688 56.7773V56.8555C5.33073 56.8711 5.60286 56.9583 5.86328 57.1172C6.1263 57.2734 6.34115 57.4948 6.50781 57.7812C6.67448 58.0677 6.75781 58.4141 6.75781 58.8203C6.75781 59.2344 6.65755 59.6068 6.45703 59.9375C6.25651 60.2656 5.95443 60.5247 5.55078 60.7148C5.14714 60.9049 4.63932 61 4.02734 61H0.789062ZM2.23828 59.7891H3.79688C4.32292 59.7891 4.70182 59.6888 4.93359 59.4883C5.16797 59.2852 5.28516 59.0247 5.28516 58.707C5.28516 58.4701 5.22656 58.2565 5.10938 58.0664C4.99219 57.8737 4.82552 57.7227 4.60938 57.6133C4.39323 57.5013 4.13542 57.4453 3.83594 57.4453H2.23828V59.7891ZM2.23828 56.4023H3.67188C3.92188 56.4023 4.14714 56.3568 4.34766 56.2656C4.54818 56.1719 4.70573 56.0404 4.82031 55.8711C4.9375 55.6992 4.99609 55.4961 4.99609 55.2617C4.99609 54.9518 4.88672 54.6966 4.66797 54.4961C4.45182 54.2956 4.13021 54.1953 3.70313 54.1953H2.23828V56.4023ZM9.46777 53V61H8.01855V53H9.46777ZM17.6113 53V61H16.3223L12.5527 55.5508H12.4863V61H11.0371V53H12.334L16.0996 58.4531H16.1699V53H17.6113ZM24.8994 58.3125H26.2119L26.9893 59.3203L27.5439 59.9766L28.876 61.6875H27.4697L26.5635 60.5391L26.1768 59.9922L24.8994 58.3125ZM29.0674 57C29.0674 57.862 28.9059 58.6003 28.583 59.2148C28.2627 59.8268 27.8252 60.2956 27.2705 60.6211C26.7184 60.9466 26.0921 61.1094 25.3916 61.1094C24.6911 61.1094 24.0635 60.9466 23.5088 60.6211C22.9567 60.293 22.5192 59.8229 22.1963 59.2109C21.876 58.5964 21.7158 57.8594 21.7158 57C21.7158 56.138 21.876 55.401 22.1963 54.7891C22.5192 54.1745 22.9567 53.7044 23.5088 53.3789C24.0635 53.0534 24.6911 52.8906 25.3916 52.8906C26.0921 52.8906 26.7184 53.0534 27.2705 53.3789C27.8252 53.7044 28.2627 54.1745 28.583 54.7891C28.9059 55.401 29.0674 56.138 29.0674 57ZM27.6104 57C27.6104 56.3932 27.5153 55.8815 27.3252 55.4648C27.1377 55.0456 26.8773 54.7292 26.5439 54.5156C26.2106 54.2995 25.8265 54.1914 25.3916 54.1914C24.9567 54.1914 24.5726 54.2995 24.2393 54.5156C23.9059 54.7292 23.6442 55.0456 23.4541 55.4648C23.2666 55.8815 23.1729 56.3932 23.1729 57C23.1729 57.6068 23.2666 58.1198 23.4541 58.5391C23.6442 58.9557 23.9059 59.2721 24.2393 59.4883C24.5726 59.7018 24.9567 59.8086 25.3916 59.8086C25.8265 59.8086 26.2106 59.7018 26.5439 59.4883C26.8773 59.2721 27.1377 58.9557 27.3252 58.5391C27.5153 58.1198 27.6104 57.6068 27.6104 57ZM35.4912 53H36.9404V58.2266C36.9404 58.7995 36.805 59.3034 36.5342 59.7383C36.266 60.1732 35.8883 60.513 35.4014 60.7578C34.9144 61 34.3454 61.1211 33.6943 61.1211C33.0407 61.1211 32.4704 61 31.9834 60.7578C31.4964 60.513 31.1188 60.1732 30.8506 59.7383C30.5824 59.3034 30.4482 58.7995 30.4482 58.2266V53H31.8975V58.1055C31.8975 58.4388 31.9704 58.7357 32.1162 58.9961C32.2646 59.2565 32.473 59.4609 32.7412 59.6094C33.0094 59.7552 33.3271 59.8281 33.6943 59.8281C34.0615 59.8281 34.3792 59.7552 34.6475 59.6094C34.9183 59.4609 35.1266 59.2565 35.2725 58.9961C35.4183 58.7357 35.4912 58.4388 35.4912 58.1055V53ZM39.543 61H37.9961L40.8125 53H42.6016L45.4219 61H43.875L41.7383 54.6406H41.6758L39.543 61ZM39.5938 57.8633H43.8125V59.0273H39.5938V57.8633ZM46.4756 61V53H47.9248V59.7852H51.4482V61H46.4756ZM54.1553 53V61H52.7061V53H54.1553ZM55.373 54.2148V53H61.7559V54.2148H59.2832V61H57.8457V54.2148H55.373ZM62.4395 53H64.0762L66.0332 56.5391H66.1113L68.0684 53H69.7051L66.7949 58.0156V61H65.3496V58.0156L62.4395 53Z" fill="#07020E"/>
    <defs>
        <filter id="filter0_d_61_1039" x="34.2021" y="22.6997" width="4.72607" height="21.4624" filterUnits="userSpaceOnUse" color-interpolation-filters="sRGB">
            <feFlood flood-opacity="0" result="BackgroundImageFix"/>
            <feColorMatrix in="SourceAlpha" type="matrix" values="0 0 0 0 0 0 0 0 0 0 0 0 0 0 0 0 0 0 127 0" result="hardAlpha"/>
            <feOffset dx="1"/>
            <feGaussianBlur stdDeviation="0.5"/>
            <feComposite in2="hardAlpha" operator="out"/>
            <feColorMatrix type="matrix" values="0 0 0 0 0 0 0 0 0 0 0 0 0 0 0 0 0 0 0.4 0"/>
            <feBlend mode="normal" in2="BackgroundImageFix" result="effect1_dropShadow_61_1039"/>
            <feBlend mode="normal" in="SourceGraphic" in2="effect1_dropShadow_61_1039" result="shape"/>
        </filter>
        <filter id="filter1_i_61_1039" x="32.7961" y="39.5847" width="4.75586" height="4.75586" filterUnits="userSpaceOnUse" color-interpolation-filters="sRGB">
            <feFlood flood-opacity="0" result="BackgroundImageFix"/>
            <feBlend mode="normal" in="SourceGraphic" in2="BackgroundImageFix" result="shape"/>
            <feColorMatrix in="SourceAlpha" type="matrix" values="0 0 0 0 0 0 0 0 0 0 0 0 0 0 0 0 0 0 127 0" result="hardAlpha"/>
            <feOffset dx="2" dy="2"/>
            <feGaussianBlur stdDeviation="2"/>
            <feComposite in2="hardAlpha" operator="arithmetic" k2="-1" k3="1"/>
            <feColorMatrix type="matrix" values="0 0 0 0 0.0588235 0 0 0 0 0.0588235 0 0 0 0 0.0588235 0 0 0 0.8 0"/>
            <feBlend mode="normal" in2="shape" result="effect1_innerShadow_61_1039"/>
        </filter>
    </defs>
</svg>
